<svg width="733" height="673" viewBox="0 0 733 673" fill="none" xmlns="http://www.w3.org/2000/svg"><mask id="b" style="mask-type:alpha" maskUnits="userSpaceOnUse" x="0" y="0" width="733" height="673"><path fill="url(#a)" d="M0 0h733v673H0z"/></mask><g mask="url(#b)"><path fill="#171717" d="M-12 0h85v85h-85z"/><path stroke="#4C1D95" stroke-opacity=".4" d="M-11.5.5h84v84h-84z"/><path fill="#4C1D95" fill-opacity=".4" d="M72 0h85v85H72z"/><path stroke="#4C1D95" stroke-opacity=".4" d="M72.5.5h84v84h-84z"/><path fill="#171717" d="M156 0h85v85h-85z"/><path stroke="#4C1D95" stroke-opacity=".4" d="M156.5.5h84v84h-84z"/><path fill="#171717" d="M240 0h85v85h-85z"/><path stroke="#4C1D95" stroke-opacity=".4" d="M240.5.5h84v84h-84z"/><path fill="#171717" d="M324 0h85v85h-85z"/><path stroke="#4C1D95" stroke-opacity=".4" d="M324.5.5h84v84h-84z"/><path fill="#4C1D95" fill-opacity=".4" d="M408 0h85v85h-85z"/><path stroke="#4C1D95" stroke-opacity=".4" d="M408.5.5h84v84h-84z"/><path fill="#171717" d="M492 0h85v85h-85z"/><path stroke="#4C1D95" stroke-opacity=".4" d="M492.5.5h84v84h-84z"/><path fill="#171717" d="M576 0h85v85h-85z"/><path stroke="#4C1D95" stroke-opacity=".4" d="M576.5.5h84v84h-84z"/><path fill="#171717" d="M660 0h85v85h-85z"/><path stroke="#4C1D95" stroke-opacity=".4" d="M660.5.5h84v84h-84z"/><path fill="#4C1D95" fill-opacity=".4" d="M-12 84h85v85h-85z"/><path stroke="#4C1D95" stroke-opacity=".4" d="M-11.5 84.5h84v84h-84z"/><path fill="#171717" d="M72 84h85v85H72z"/><path stroke="#4C1D95" stroke-opacity=".4" d="M72.5 84.5h84v84h-84z"/><path fill="#171717" d="M156 84h85v85h-85z"/><path stroke="#4C1D95" stroke-opacity=".4" d="M156.5 84.5h84v84h-84z"/><path fill="#171717" d="M240 84h85v85h-85z"/><path stroke="#4C1D95" stroke-opacity=".4" d="M240.5 84.5h84v84h-84z"/><path fill="#171717" d="M324 84h85v85h-85z"/><path stroke="#4C1D95" stroke-opacity=".4" d="M324.5 84.5h84v84h-84z"/><path fill="#171717" d="M408 84h85v85h-85z"/><path stroke="#4C1D95" stroke-opacity=".4" d="M408.5 84.5h84v84h-84z"/><path fill="#171717" d="M492 84h85v85h-85z"/><path stroke="#4C1D95" stroke-opacity=".4" d="M492.5 84.5h84v84h-84z"/><path fill="#171717" d="M576 84h85v85h-85z"/><path stroke="#4C1D95" stroke-opacity=".4" d="M576.5 84.5h84v84h-84z"/><path fill="#171717" d="M660 84h85v85h-85z"/><path stroke="#4C1D95" stroke-opacity=".4" d="M660.5 84.5h84v84h-84z"/><path fill="#171717" d="M-12 168h85v85h-85z"/><path stroke="#4C1D95" stroke-opacity=".4" d="M-11.5 168.5h84v84h-84z"/><path fill="#171717" d="M72 168h85v85H72z"/><path stroke="#4C1D95" stroke-opacity=".4" d="M72.5 168.5h84v84h-84z"/><path fill="#171717" d="M156 168h85v85h-85z"/><path stroke="#4C1D95" stroke-opacity=".4" d="M156.5 168.5h84v84h-84z"/><path fill="#171717" d="M240 168h85v85h-85z"/><path stroke="#4C1D95" stroke-opacity=".4" d="M240.5 168.5h84v84h-84z"/><path fill="#171717" d="M324 168h85v85h-85z"/><path stroke="#4C1D95" stroke-opacity=".4" d="M324.5 168.5h84v84h-84z"/><path fill="#171717" d="M408 168h85v85h-85z"/><path stroke="#4C1D95" stroke-opacity=".4" d="M408.5 168.5h84v84h-84z"/><path fill="#171717" d="M492 168h85v85h-85z"/><path stroke="#4C1D95" stroke-opacity=".4" d="M492.5 168.5h84v84h-84z"/><path fill="#171717" d="M576 168h85v85h-85z"/><path stroke="#4C1D95" stroke-opacity=".4" d="M576.5 168.5h84v84h-84z"/><path fill="#4C1D95" fill-opacity=".4" d="M660 168h85v85h-85z"/><path stroke="#4C1D95" stroke-opacity=".4" d="M660.5 168.5h84v84h-84z"/><path fill="#171717" d="M-12 252h85v85h-85z"/><path stroke="#4C1D95" stroke-opacity=".4" d="M-11.5 252.5h84v84h-84z"/><path fill="#171717" d="M72 252h85v85H72z"/><path stroke="#4C1D95" stroke-opacity=".4" d="M72.5 252.5h84v84h-84z"/><path fill="#171717" d="M156 252h85v85h-85z"/><path stroke="#4C1D95" stroke-opacity=".4" d="M156.5 252.5h84v84h-84z"/><path fill="#171717" d="M240 252h85v85h-85z"/><path stroke="#4C1D95" stroke-opacity=".4" d="M240.5 252.5h84v84h-84z"/><path fill="#171717" d="M324 252h85v85h-85z"/><path stroke="#4C1D95" stroke-opacity=".4" d="M324.5 252.5h84v84h-84z"/><path fill="#171717" d="M408 252h85v85h-85z"/><path stroke="#4C1D95" stroke-opacity=".4" d="M408.5 252.5h84v84h-84z"/><path fill="#171717" d="M492 252h85v85h-85z"/><path stroke="#4C1D95" stroke-opacity=".4" d="M492.5 252.5h84v84h-84z"/><path fill="#171717" d="M576 252h85v85h-85z"/><path stroke="#4C1D95" stroke-opacity=".4" d="M576.5 252.5h84v84h-84z"/><path fill="#171717" d="M660 252h85v85h-85z"/><path stroke="#4C1D95" stroke-opacity=".4" d="M660.5 252.5h84v84h-84z"/><path fill="#171717" d="M-12 336h85v85h-85z"/><path stroke="#4C1D95" stroke-opacity=".4" d="M-11.5 336.5h84v84h-84z"/><path fill="#171717" d="M72 336h85v85H72z"/><path stroke="#4C1D95" stroke-opacity=".4" d="M72.5 336.5h84v84h-84z"/><path fill="#4C1D95" fill-opacity=".4" d="M156 336h85v85h-85z"/><path stroke="#4C1D95" stroke-opacity=".4" d="M156.5 336.5h84v84h-84z"/><path fill="#171717" d="M240 336h85v85h-85z"/><path stroke="#4C1D95" stroke-opacity=".4" d="M240.5 336.5h84v84h-84z"/><path fill="#171717" d="M324 336h85v85h-85z"/><path stroke="#4C1D95" stroke-opacity=".4" d="M324.5 336.5h84v84h-84z"/><path fill="#171717" d="M408 336h85v85h-85z"/><path stroke="#4C1D95" stroke-opacity=".4" d="M408.5 336.5h84v84h-84z"/><path fill="#171717" d="M492 336h85v85h-85z"/><path stroke="#4C1D95" stroke-opacity=".4" d="M492.5 336.5h84v84h-84z"/><path fill="#4C1D95" fill-opacity=".4" d="M576 336h85v85h-85z"/><path stroke="#4C1D95" stroke-opacity=".4" d="M576.5 336.5h84v84h-84z"/><path fill="#171717" d="M660 336h85v85h-85z"/><path stroke="#4C1D95" stroke-opacity=".4" d="M660.5 336.5h84v84h-84z"/><path fill="#171717" d="M-12 420h85v85h-85z"/><path stroke="#4C1D95" stroke-opacity=".4" d="M-11.5 420.5h84v84h-84z"/><path fill="#171717" d="M72 420h85v85H72z"/><path stroke="#4C1D95" stroke-opacity=".4" d="M72.5 420.5h84v84h-84z"/><path fill="#171717" d="M156 420h85v85h-85z"/><path stroke="#4C1D95" stroke-opacity=".4" d="M156.5 420.5h84v84h-84z"/><path fill="#171717" d="M240 420h85v85h-85z"/><path stroke="#4C1D95" stroke-opacity=".4" d="M240.5 420.5h84v84h-84z"/><path fill="#171717" d="M324 420h85v85h-85z"/><path stroke="#4C1D95" stroke-opacity=".4" d="M324.5 420.5h84v84h-84z"/><path fill="#171717" d="M408 420h85v85h-85z"/><path stroke="#4C1D95" stroke-opacity=".4" d="M408.5 420.5h84v84h-84z"/><path fill="#171717" d="M492 420h85v85h-85z"/><path stroke="#4C1D95" stroke-opacity=".4" d="M492.5 420.5h84v84h-84z"/><path fill="#171717" d="M576 420h85v85h-85z"/><path stroke="#4C1D95" stroke-opacity=".4" d="M576.5 420.5h84v84h-84z"/><path fill="#171717" d="M660 420h85v85h-85z"/><path stroke="#4C1D95" stroke-opacity=".4" d="M660.5 420.5h84v84h-84z"/><path fill="#171717" d="M-12 504h85v85h-85z"/><path stroke="#4C1D95" stroke-opacity=".4" d="M-11.5 504.5h84v84h-84z"/><path fill="#171717" d="M72 504h85v85H72z"/><path stroke="#4C1D95" stroke-opacity=".4" d="M72.5 504.5h84v84h-84z"/><path fill="#171717" d="M156 504h85v85h-85z"/><path stroke="#4C1D95" stroke-opacity=".4" d="M156.5 504.5h84v84h-84z"/><path fill="#171717" d="M240 504h85v85h-85z"/><path stroke="#4C1D95" stroke-opacity=".4" d="M240.5 504.5h84v84h-84z"/><path fill="#171717" d="M324 504h85v85h-85z"/><path stroke="#4C1D95" stroke-opacity=".4" d="M324.5 504.5h84v84h-84z"/><path fill="#171717" d="M408 504h85v85h-85z"/><path stroke="#4C1D95" stroke-opacity=".4" d="M408.5 504.5h84v84h-84z"/><path fill="#171717" d="M492 504h85v85h-85z"/><path stroke="#4C1D95" stroke-opacity=".4" d="M492.5 504.5h84v84h-84z"/><path fill="#171717" d="M576 504h85v85h-85z"/><path stroke="#4C1D95" stroke-opacity=".4" d="M576.5 504.5h84v84h-84z"/><path fill="#171717" d="M660 504h85v85h-85z"/><path stroke="#4C1D95" stroke-opacity=".4" d="M660.5 504.5h84v84h-84z"/><path fill="#171717" d="M-12 588h85v85h-85z"/><path stroke="#4C1D95" stroke-opacity=".4" d="M-11.5 588.5h84v84h-84z"/><path fill="#171717" d="M72 588h85v85H72z"/><path stroke="#4C1D95" stroke-opacity=".4" d="M72.5 588.5h84v84h-84z"/><path fill="#171717" d="M156 588h85v85h-85z"/><path stroke="#4C1D95" stroke-opacity=".4" d="M156.5 588.5h84v84h-84z"/><path fill="#171717" d="M240 588h85v85h-85z"/><path stroke="#4C1D95" stroke-opacity=".4" d="M240.5 588.5h84v84h-84z"/><path fill="#171717" d="M324 588h85v85h-85z"/><path stroke="#4C1D95" stroke-opacity=".4" d="M324.5 588.5h84v84h-84z"/><path fill="#171717" d="M408 588h85v85h-85z"/><path stroke="#4C1D95" stroke-opacity=".4" d="M408.5 588.5h84v84h-84z"/><path fill="#171717" d="M492 588h85v85h-85z"/><path stroke="#4C1D95" stroke-opacity=".4" d="M492.5 588.5h84v84h-84z"/><path fill="#171717" d="M576 588h85v85h-85z"/><path stroke="#4C1D95" stroke-opacity=".4" d="M576.5 588.5h84v84h-84z"/><path fill="#171717" d="M660 588h85v85h-85z"/><path stroke="#4C1D95" stroke-opacity=".4" d="M660.5 588.5h84v84h-84z"/></g><defs><radialGradient id="a" cx="0" cy="0" r="1" gradientUnits="userSpaceOnUse" gradientTransform="scale(366.5 336.5)rotate(90 0 1)"><stop stop-color="#2563EB"/><stop offset="1" stop-color="#fff" stop-opacity="0"/></radialGradient></defs></svg>