<svg width="733" height="614" viewBox="0 0 733 614" fill="none" xmlns="http://www.w3.org/2000/svg"><mask id="b" style="mask-type:alpha" maskUnits="userSpaceOnUse" x="0" y="0" width="733" height="673"><path fill="url(#a)" d="M0 0h733v673H0z"/></mask><g mask="url(#b)" stroke="#DDD6FE"><path fill="#fff" d="M-11.5.5h84v84h-84z"/><path fill="#DDD6FE" d="M72.5.5h84v84h-84z"/><path fill="#fff" d="M156.5.5h84v84h-84zm84 0h84v84h-84zm84 0h84v84h-84z"/><path fill="#DDD6FE" d="M408.5.5h84v84h-84z"/><path fill="#fff" d="M492.5.5h84v84h-84zm84 0h84v84h-84zm84 0h84v84h-84z"/><path fill="#DDD6FE" d="M-11.5 84.5h84v84h-84z"/><path fill="#fff" d="M72.5 84.5h84v84h-84zm84 0h84v84h-84zm84 0h84v84h-84zm84 0h84v84h-84zm84 0h84v84h-84zm84 0h84v84h-84zm84 0h84v84h-84zm84 0h84v84h-84zm-672 84h84v84h-84zm84 0h84v84h-84zm84 0h84v84h-84zm84 0h84v84h-84zm84 0h84v84h-84zm84 0h84v84h-84zm84 0h84v84h-84zm84 0h84v84h-84z"/><path fill="#DDD6FE" d="M660.5 168.5h84v84h-84z"/><path fill="#fff" d="M-11.5 252.5h84v84h-84zm84 0h84v84h-84zm84 0h84v84h-84zm84 0h84v84h-84zm84 0h84v84h-84zm84 0h84v84h-84zm84 0h84v84h-84zm84 0h84v84h-84zm84 0h84v84h-84zm-672 84h84v84h-84zm84 0h84v84h-84z"/><path fill="#DDD6FE" d="M156.5 336.5h84v84h-84z"/><path fill="#fff" d="M240.5 336.5h84v84h-84zm84 0h84v84h-84zm84 0h84v84h-84zm84 0h84v84h-84z"/><path fill="#DDD6FE" d="M576.5 336.5h84v84h-84z"/><path fill="#fff" d="M660.5 336.5h84v84h-84zm-672 84h84v84h-84zm84 0h84v84h-84zm84 0h84v84h-84zm84 0h84v84h-84zm84 0h84v84h-84zm84 0h84v84h-84zm84 0h84v84h-84zm84 0h84v84h-84zm84 0h84v84h-84zm-672 84h84v84h-84zm84 0h84v84h-84zm84 0h84v84h-84zm84 0h84v84h-84zm84 0h84v84h-84zm84 0h84v84h-84zm84 0h84v84h-84zm84 0h84v84h-84zm84 0h84v84h-84zm-672 84h84v84h-84zm84 0h84v84h-84zm84 0h84v84h-84zm84 0h84v84h-84zm84 0h84v84h-84zm84 0h84v84h-84zm84 0h84v84h-84zm84 0h84v84h-84zm84 0h84v84h-84z"/></g><defs><radialGradient id="a" cx="0" cy="0" r="1" gradientUnits="userSpaceOnUse" gradientTransform="scale(366.5 336.5)rotate(90 0 1)"><stop offset="0%" stop-color="#2563EB"/><stop offset="1" stop-color="#fff" stop-opacity="0"/></radialGradient></defs></svg>